<mxfile host="Electron" agent="Mozilla/5.0 (Windows NT 10.0; Win64; x64) AppleWebKit/537.36 (KHTML, like Gecko) draw.io/21.2.8 Chrome/112.0.5615.165 Electron/24.2.0 Safari/537.36" modified="2024-10-25T22:16:38.144Z" version="21.2.8" etag="OJyv7kXzsFQAiXWycOKS" type="device">
  <diagram name="Página-1" id="Qe4ghYq_AyCibzyCH9An">
    <mxGraphModel dx="2196" dy="1656" grid="1" gridSize="10" guides="1" tooltips="1" connect="1" arrows="1" fold="1" page="1" pageScale="1" pageWidth="827" pageHeight="1169" math="0" shadow="0">
      <root>
        <mxCell id="0" />
        <mxCell id="1" parent="0" />
        <mxCell id="M4xgvFSOcpJ8ok8aUig4-13" value="" style="whiteSpace=wrap;html=1;aspect=fixed;" vertex="1" parent="1">
          <mxGeometry x="460" y="980" width="920" height="920" as="geometry" />
        </mxCell>
        <mxCell id="M4xgvFSOcpJ8ok8aUig4-21" style="edgeStyle=orthogonalEdgeStyle;rounded=0;orthogonalLoop=1;jettySize=auto;html=1;exitX=1;exitY=0.3333333333333333;exitDx=0;exitDy=0;exitPerimeter=0;entryX=0;entryY=0.5;entryDx=0;entryDy=0;endArrow=none;endFill=0;" edge="1" parent="1" source="M4xgvFSOcpJ8ok8aUig4-19" target="M4xgvFSOcpJ8ok8aUig4-44">
          <mxGeometry relative="1" as="geometry">
            <mxPoint x="770" y="1660" as="targetPoint" />
          </mxGeometry>
        </mxCell>
        <mxCell id="M4xgvFSOcpJ8ok8aUig4-47" style="edgeStyle=orthogonalEdgeStyle;rounded=0;orthogonalLoop=1;jettySize=auto;html=1;exitX=1;exitY=0.3333333333333333;exitDx=0;exitDy=0;exitPerimeter=0;entryX=0;entryY=0.5;entryDx=0;entryDy=0;endArrow=none;endFill=0;" edge="1" parent="1" source="M4xgvFSOcpJ8ok8aUig4-19" target="M4xgvFSOcpJ8ok8aUig4-45">
          <mxGeometry relative="1" as="geometry" />
        </mxCell>
        <mxCell id="M4xgvFSOcpJ8ok8aUig4-48" style="edgeStyle=orthogonalEdgeStyle;rounded=0;orthogonalLoop=1;jettySize=auto;html=1;exitX=1;exitY=0.3333333333333333;exitDx=0;exitDy=0;exitPerimeter=0;entryX=0;entryY=0.5;entryDx=0;entryDy=0;endArrow=none;endFill=0;" edge="1" parent="1" source="M4xgvFSOcpJ8ok8aUig4-19" target="M4xgvFSOcpJ8ok8aUig4-46">
          <mxGeometry relative="1" as="geometry" />
        </mxCell>
        <mxCell id="M4xgvFSOcpJ8ok8aUig4-19" value="Sucursal" style="shape=umlActor;verticalLabelPosition=bottom;verticalAlign=top;html=1;outlineConnect=0;" vertex="1" parent="1">
          <mxGeometry x="320" y="1290" width="30" height="60" as="geometry" />
        </mxCell>
        <mxCell id="M4xgvFSOcpJ8ok8aUig4-23" value="BD" style="shape=umlActor;verticalLabelPosition=bottom;verticalAlign=top;html=1;outlineConnect=0;" vertex="1" parent="1">
          <mxGeometry x="1470" y="1369" width="30" height="60" as="geometry" />
        </mxCell>
        <mxCell id="M4xgvFSOcpJ8ok8aUig4-26" value="" style="edgeStyle=orthogonalEdgeStyle;rounded=0;orthogonalLoop=1;jettySize=auto;html=1;exitX=0.5;exitY=0;exitDx=0;exitDy=0;entryX=1;entryY=1;entryDx=0;entryDy=0;endArrow=none;endFill=0;dashed=1;dashPattern=1 4;" edge="1" parent="1" source="M4xgvFSOcpJ8ok8aUig4-44" target="M4xgvFSOcpJ8ok8aUig4-43">
          <mxGeometry relative="1" as="geometry">
            <mxPoint x="820" y="1630" as="sourcePoint" />
            <mxPoint x="820" y="1600" as="targetPoint" />
            <Array as="points">
              <mxPoint x="990" y="1639" />
              <mxPoint x="990" y="1370" />
              <mxPoint x="1020" y="1370" />
              <mxPoint x="1020" y="1160" />
            </Array>
          </mxGeometry>
        </mxCell>
        <mxCell id="M4xgvFSOcpJ8ok8aUig4-29" value="" style="edgeStyle=orthogonalEdgeStyle;rounded=0;orthogonalLoop=1;jettySize=auto;html=1;exitX=0.5;exitY=0;exitDx=0;exitDy=0;entryX=0;entryY=1;entryDx=0;entryDy=0;endArrow=none;endFill=0;dashed=1;dashPattern=1 4;" edge="1" parent="1" source="M4xgvFSOcpJ8ok8aUig4-45" target="M4xgvFSOcpJ8ok8aUig4-43">
          <mxGeometry relative="1" as="geometry">
            <mxPoint x="820" y="1540" as="sourcePoint" />
            <mxPoint x="820" y="1510" as="targetPoint" />
            <Array as="points">
              <mxPoint x="790" y="1549" />
              <mxPoint x="790" y="1359" />
              <mxPoint x="780" y="1359" />
              <mxPoint x="780" y="1160" />
            </Array>
          </mxGeometry>
        </mxCell>
        <mxCell id="M4xgvFSOcpJ8ok8aUig4-32" value="" style="edgeStyle=orthogonalEdgeStyle;rounded=0;orthogonalLoop=1;jettySize=auto;html=1;exitX=0.5;exitY=0;exitDx=0;exitDy=0;entryX=0;entryY=0.5;entryDx=0;entryDy=0;endArrow=none;endFill=0;dashed=1;dashPattern=1 4;" edge="1" parent="1" source="M4xgvFSOcpJ8ok8aUig4-46" target="M4xgvFSOcpJ8ok8aUig4-43">
          <mxGeometry relative="1" as="geometry">
            <mxPoint x="820" y="1450" as="sourcePoint" />
            <mxPoint x="785" y="1130" as="targetPoint" />
            <Array as="points">
              <mxPoint x="830" y="1459" />
              <mxPoint x="830" y="1314" />
              <mxPoint x="835" y="1314" />
              <mxPoint x="835" y="1139" />
            </Array>
          </mxGeometry>
        </mxCell>
        <mxCell id="M4xgvFSOcpJ8ok8aUig4-31" value="Informar envío realizado" style="ellipse;whiteSpace=wrap;html=1;" vertex="1" parent="1">
          <mxGeometry x="855" y="1369" width="100" height="60" as="geometry" />
        </mxCell>
        <mxCell id="M4xgvFSOcpJ8ok8aUig4-39" style="edgeStyle=orthogonalEdgeStyle;rounded=0;orthogonalLoop=1;jettySize=auto;html=1;exitX=1;exitY=0.3333333333333333;exitDx=0;exitDy=0;exitPerimeter=0;entryX=0;entryY=0;entryDx=0;entryDy=0;endArrow=none;endFill=0;" edge="1" parent="1" source="M4xgvFSOcpJ8ok8aUig4-37" target="M4xgvFSOcpJ8ok8aUig4-31">
          <mxGeometry relative="1" as="geometry">
            <Array as="points">
              <mxPoint x="650" y="1129" />
              <mxPoint x="650" y="1369" />
            </Array>
          </mxGeometry>
        </mxCell>
        <mxCell id="M4xgvFSOcpJ8ok8aUig4-51" style="edgeStyle=orthogonalEdgeStyle;rounded=0;orthogonalLoop=1;jettySize=auto;html=1;exitX=1;exitY=0.3333333333333333;exitDx=0;exitDy=0;exitPerimeter=0;entryX=0;entryY=0.5;entryDx=0;entryDy=0;endArrow=none;endFill=0;" edge="1" parent="1" source="M4xgvFSOcpJ8ok8aUig4-37" target="M4xgvFSOcpJ8ok8aUig4-49">
          <mxGeometry relative="1" as="geometry">
            <Array as="points">
              <mxPoint x="650" y="1129" />
              <mxPoint x="650" y="1300" />
            </Array>
          </mxGeometry>
        </mxCell>
        <mxCell id="M4xgvFSOcpJ8ok8aUig4-52" style="edgeStyle=orthogonalEdgeStyle;rounded=0;orthogonalLoop=1;jettySize=auto;html=1;exitX=1;exitY=0.3333333333333333;exitDx=0;exitDy=0;exitPerimeter=0;entryX=0;entryY=0.5;entryDx=0;entryDy=0;endArrow=none;endFill=0;" edge="1" parent="1" source="M4xgvFSOcpJ8ok8aUig4-37" target="M4xgvFSOcpJ8ok8aUig4-44">
          <mxGeometry relative="1" as="geometry">
            <Array as="points">
              <mxPoint x="630" y="1129" />
              <mxPoint x="630" y="1669" />
            </Array>
          </mxGeometry>
        </mxCell>
        <mxCell id="M4xgvFSOcpJ8ok8aUig4-54" style="edgeStyle=orthogonalEdgeStyle;rounded=0;orthogonalLoop=1;jettySize=auto;html=1;exitX=1;exitY=0.3333333333333333;exitDx=0;exitDy=0;exitPerimeter=0;entryX=0.5;entryY=0;entryDx=0;entryDy=0;endArrow=none;endFill=0;" edge="1" parent="1" source="M4xgvFSOcpJ8ok8aUig4-37" target="M4xgvFSOcpJ8ok8aUig4-53">
          <mxGeometry relative="1" as="geometry" />
        </mxCell>
        <mxCell id="M4xgvFSOcpJ8ok8aUig4-60" style="edgeStyle=orthogonalEdgeStyle;rounded=0;orthogonalLoop=1;jettySize=auto;html=1;exitX=1;exitY=0.3333333333333333;exitDx=0;exitDy=0;exitPerimeter=0;entryX=0;entryY=0.5;entryDx=0;entryDy=0;endArrow=none;endFill=0;" edge="1" parent="1" source="M4xgvFSOcpJ8ok8aUig4-37" target="M4xgvFSOcpJ8ok8aUig4-59">
          <mxGeometry relative="1" as="geometry" />
        </mxCell>
        <mxCell id="M4xgvFSOcpJ8ok8aUig4-37" value="Administrador" style="shape=umlActor;verticalLabelPosition=bottom;verticalAlign=top;html=1;outlineConnect=0;" vertex="1" parent="1">
          <mxGeometry x="320" y="1109" width="30" height="60" as="geometry" />
        </mxCell>
        <mxCell id="M4xgvFSOcpJ8ok8aUig4-63" style="edgeStyle=orthogonalEdgeStyle;rounded=0;orthogonalLoop=1;jettySize=auto;html=1;exitX=0.5;exitY=1;exitDx=0;exitDy=0;entryX=0.5;entryY=0;entryDx=0;entryDy=0;endArrow=none;endFill=0;dashed=1;dashPattern=1 4;" edge="1" parent="1" source="M4xgvFSOcpJ8ok8aUig4-43" target="M4xgvFSOcpJ8ok8aUig4-59">
          <mxGeometry relative="1" as="geometry" />
        </mxCell>
        <mxCell id="M4xgvFSOcpJ8ok8aUig4-43" value="Iniciar Sesión" style="ellipse;whiteSpace=wrap;html=1;" vertex="1" parent="1">
          <mxGeometry x="855" y="1109" width="100" height="60" as="geometry" />
        </mxCell>
        <mxCell id="M4xgvFSOcpJ8ok8aUig4-56" style="edgeStyle=orthogonalEdgeStyle;rounded=0;orthogonalLoop=1;jettySize=auto;html=1;exitX=1;exitY=0.5;exitDx=0;exitDy=0;entryX=0;entryY=0.3333333333333333;entryDx=0;entryDy=0;entryPerimeter=0;endArrow=none;endFill=0;" edge="1" parent="1" source="M4xgvFSOcpJ8ok8aUig4-44" target="M4xgvFSOcpJ8ok8aUig4-23">
          <mxGeometry relative="1" as="geometry" />
        </mxCell>
        <mxCell id="M4xgvFSOcpJ8ok8aUig4-44" value="Ver pedidos" style="ellipse;whiteSpace=wrap;html=1;" vertex="1" parent="1">
          <mxGeometry x="855" y="1639" width="100" height="60" as="geometry" />
        </mxCell>
        <mxCell id="M4xgvFSOcpJ8ok8aUig4-45" value="Aceptar pedidos" style="ellipse;whiteSpace=wrap;html=1;" vertex="1" parent="1">
          <mxGeometry x="855" y="1549" width="100" height="60" as="geometry" />
        </mxCell>
        <mxCell id="M4xgvFSOcpJ8ok8aUig4-46" value="Realizar envios" style="ellipse;whiteSpace=wrap;html=1;" vertex="1" parent="1">
          <mxGeometry x="855" y="1459" width="100" height="60" as="geometry" />
        </mxCell>
        <mxCell id="M4xgvFSOcpJ8ok8aUig4-58" style="edgeStyle=orthogonalEdgeStyle;rounded=0;orthogonalLoop=1;jettySize=auto;html=1;exitX=1;exitY=0.5;exitDx=0;exitDy=0;endArrow=none;endFill=0;" edge="1" parent="1" source="M4xgvFSOcpJ8ok8aUig4-49">
          <mxGeometry relative="1" as="geometry">
            <mxPoint x="1470" y="1390" as="targetPoint" />
            <Array as="points">
              <mxPoint x="955" y="1350" />
              <mxPoint x="1471" y="1350" />
            </Array>
          </mxGeometry>
        </mxCell>
        <mxCell id="M4xgvFSOcpJ8ok8aUig4-49" value="Registrar pedido" style="ellipse;whiteSpace=wrap;html=1;" vertex="1" parent="1">
          <mxGeometry x="855" y="1270" width="100" height="60" as="geometry" />
        </mxCell>
        <mxCell id="M4xgvFSOcpJ8ok8aUig4-55" style="edgeStyle=orthogonalEdgeStyle;rounded=0;orthogonalLoop=1;jettySize=auto;html=1;exitX=0;exitY=0.5;exitDx=0;exitDy=0;entryX=1;entryY=0.5;entryDx=0;entryDy=0;dashed=1;dashPattern=1 4;endArrow=none;endFill=0;" edge="1" parent="1" source="M4xgvFSOcpJ8ok8aUig4-53" target="M4xgvFSOcpJ8ok8aUig4-43">
          <mxGeometry relative="1" as="geometry" />
        </mxCell>
        <mxCell id="M4xgvFSOcpJ8ok8aUig4-57" style="edgeStyle=orthogonalEdgeStyle;rounded=0;orthogonalLoop=1;jettySize=auto;html=1;exitX=1;exitY=1;exitDx=0;exitDy=0;endArrow=none;endFill=0;" edge="1" parent="1" source="M4xgvFSOcpJ8ok8aUig4-53">
          <mxGeometry relative="1" as="geometry">
            <mxPoint x="1470" y="1390" as="targetPoint" />
            <Array as="points">
              <mxPoint x="1235" y="1330" />
              <mxPoint x="1471" y="1330" />
            </Array>
          </mxGeometry>
        </mxCell>
        <mxCell id="M4xgvFSOcpJ8ok8aUig4-53" value="Registrar producto" style="ellipse;whiteSpace=wrap;html=1;" vertex="1" parent="1">
          <mxGeometry x="1150" y="1080" width="100" height="60" as="geometry" />
        </mxCell>
        <mxCell id="M4xgvFSOcpJ8ok8aUig4-61" style="edgeStyle=orthogonalEdgeStyle;rounded=0;orthogonalLoop=1;jettySize=auto;html=1;exitX=1;exitY=0.5;exitDx=0;exitDy=0;endArrow=none;endFill=0;" edge="1" parent="1" source="M4xgvFSOcpJ8ok8aUig4-59">
          <mxGeometry relative="1" as="geometry">
            <mxPoint x="1470" y="1390" as="targetPoint" />
          </mxGeometry>
        </mxCell>
        <mxCell id="M4xgvFSOcpJ8ok8aUig4-59" value="Registrar sucursales" style="ellipse;whiteSpace=wrap;html=1;" vertex="1" parent="1">
          <mxGeometry x="855" y="1190" width="100" height="60" as="geometry" />
        </mxCell>
        <mxCell id="M4xgvFSOcpJ8ok8aUig4-69" value="&amp;lt;include&amp;gt;" style="text;html=1;align=center;verticalAlign=middle;whiteSpace=wrap;rounded=0;" vertex="1" parent="1">
          <mxGeometry x="930" y="1609" width="60" height="30" as="geometry" />
        </mxCell>
        <mxCell id="M4xgvFSOcpJ8ok8aUig4-73" value="" style="edgeStyle=orthogonalEdgeStyle;rounded=0;orthogonalLoop=1;jettySize=auto;html=1;entryX=0.5;entryY=0;entryDx=0;entryDy=0;endArrow=none;endFill=0;dashed=1;dashPattern=1 4;exitX=0.5;exitY=0;exitDx=0;exitDy=0;" edge="1" parent="1" source="M4xgvFSOcpJ8ok8aUig4-49" target="M4xgvFSOcpJ8ok8aUig4-43">
          <mxGeometry relative="1" as="geometry">
            <mxPoint x="905" y="1270" as="sourcePoint" />
            <mxPoint x="870" y="1118" as="targetPoint" />
            <Array as="points">
              <mxPoint x="850" y="1270" />
              <mxPoint x="850" y="1210" />
              <mxPoint x="810" y="1210" />
              <mxPoint x="810" y="1070" />
              <mxPoint x="905" y="1070" />
            </Array>
          </mxGeometry>
        </mxCell>
        <mxCell id="M4xgvFSOcpJ8ok8aUig4-75" value="" style="edgeStyle=orthogonalEdgeStyle;rounded=0;orthogonalLoop=1;jettySize=auto;html=1;entryX=1;entryY=0;entryDx=0;entryDy=0;endArrow=none;endFill=0;dashed=1;dashPattern=1 4;" edge="1" parent="1" target="M4xgvFSOcpJ8ok8aUig4-43">
          <mxGeometry relative="1" as="geometry">
            <mxPoint x="905" y="1369" as="sourcePoint" />
            <mxPoint x="940" y="1118" as="targetPoint" />
            <Array as="points">
              <mxPoint x="980" y="1369" />
              <mxPoint x="980" y="1269" />
              <mxPoint x="990" y="1269" />
              <mxPoint x="990" y="1118" />
            </Array>
          </mxGeometry>
        </mxCell>
        <mxCell id="M4xgvFSOcpJ8ok8aUig4-77" value="&amp;lt;include&amp;gt;" style="text;html=1;align=center;verticalAlign=middle;whiteSpace=wrap;rounded=0;" vertex="1" parent="1">
          <mxGeometry x="790" y="1519" width="60" height="30" as="geometry" />
        </mxCell>
        <mxCell id="M4xgvFSOcpJ8ok8aUig4-78" value="&amp;lt;include&amp;gt;" style="text;html=1;align=center;verticalAlign=middle;whiteSpace=wrap;rounded=0;" vertex="1" parent="1">
          <mxGeometry x="830" y="1429" width="60" height="30" as="geometry" />
        </mxCell>
        <mxCell id="M4xgvFSOcpJ8ok8aUig4-79" value="&amp;lt;include&amp;gt;" style="text;html=1;align=center;verticalAlign=middle;whiteSpace=wrap;rounded=0;" vertex="1" parent="1">
          <mxGeometry x="920" y="1339" width="60" height="30" as="geometry" />
        </mxCell>
        <mxCell id="M4xgvFSOcpJ8ok8aUig4-80" value="&amp;lt;include&amp;gt;" style="text;html=1;align=center;verticalAlign=middle;whiteSpace=wrap;rounded=0;" vertex="1" parent="1">
          <mxGeometry x="850" y="1240" width="60" height="30" as="geometry" />
        </mxCell>
        <mxCell id="M4xgvFSOcpJ8ok8aUig4-81" value="&amp;lt;include&amp;gt;" style="text;html=1;align=center;verticalAlign=middle;whiteSpace=wrap;rounded=0;" vertex="1" parent="1">
          <mxGeometry x="1080" y="1070" width="60" height="30" as="geometry" />
        </mxCell>
      </root>
    </mxGraphModel>
  </diagram>
</mxfile>
